<svg width="16" height="16" viewBox="0 0 16 16" fill="none" xmlns="http://www.w3.org/2000/svg">
<path d="M0 0H16V16H0V0Z" fill="#337842"/>
<path d="M9.51411 4.03973L10.6041 4.9632L9.19766 5.54919L9.51411 4.03973Z" fill="white"/>
<path d="M12.2426 1.8995C12.6609 2.39535 12.4567 3.39792 11.7865 4.13881C11.1162 4.87969 10.0194 5.43545 9.60106 4.9396C9.18276 4.44375 9.60144 3.08407 10.2717 2.34318C10.9419 1.6023 11.8243 1.40366 12.2426 1.8995Z" fill="white"/>
<path d="M8.81202 4.03808L9.90204 4.96155L8.49557 5.54754L8.81202 4.03808Z" fill="#81C77F"/>
<path d="M11.5405 1.89779C11.9588 2.39364 11.7546 3.39621 11.0844 4.1371C10.4141 4.87798 9.31727 5.43374 8.89897 4.93789C8.48067 4.44204 8.89935 3.08236 9.56957 2.34147C10.2398 1.60059 11.1222 1.40195 11.5405 1.89779Z" fill="#81C77F"/>
<path d="M0.504 11V5.848H2.592C3.35467 5.848 3.92 6.05067 4.288 6.456C4.656 6.856 4.84 7.52267 4.84 8.456C4.84 9.336 4.65867 9.98133 4.296 10.392C3.93333 10.7973 3.36533 11 2.592 11H0.504ZM1.376 10.328H2.456C2.792 10.328 3.072 10.28 3.296 10.184C3.52 10.0827 3.688 9.896 3.8 9.624C3.912 9.352 3.968 8.96267 3.968 8.456C3.968 7.94933 3.91733 7.55733 3.816 7.28C3.71467 7.00267 3.552 6.808 3.328 6.696C3.10933 6.584 2.81867 6.528 2.456 6.528H1.376V10.328ZM5.69931 11V5.848H8.06731C8.64331 5.848 9.06198 5.99733 9.32331 6.296C9.58998 6.58933 9.72331 6.98933 9.72331 7.496C9.72331 7.85867 9.63265 8.168 9.45131 8.424C9.26998 8.68 9.00865 8.85867 8.66731 8.96C8.76331 9.02933 8.83798 9.104 8.89131 9.184C8.94465 9.264 8.99798 9.37067 9.05131 9.504L9.69931 11H8.80331L8.17131 9.56C8.11265 9.42133 8.04065 9.32267 7.95531 9.264C7.87531 9.20533 7.73665 9.176 7.53931 9.176H6.57131V11H5.69931ZM6.57131 8.472H7.83531C8.14998 8.472 8.39798 8.39467 8.57931 8.24C8.76065 8.08533 8.85131 7.83733 8.85131 7.496C8.85131 6.85067 8.53931 6.528 7.91531 6.528H6.57131V8.472ZM12.3981 11L10.4301 5.848H11.3341L12.8781 10.064L14.4221 5.848H15.3261L13.3741 11H12.3981Z" fill="white"/>
</svg>
