<svg width="193" height="183" viewBox="0 0 193 183" fill="none" xmlns="http://www.w3.org/2000/svg">
<rect width="193" height="183" fill="white"/>
<path d="M158.141 30.3973L169.041 39.632L154.977 45.4919L158.141 30.3973Z" fill="#337842"/>
<path d="M185.426 8.99478C189.609 13.9532 187.567 23.979 180.865 31.3878C174.162 38.7967 163.194 44.3542 159.011 39.3957C154.828 34.4373 159.014 20.8405 165.717 13.4316C172.419 6.02274 181.243 4.0363 185.426 8.99478Z" fill="#337842"/>
<path d="M151.12 30.3806L162.02 39.6153L147.956 45.4752L151.12 30.3806Z" fill="#81C77F"/>
<path d="M178.405 8.97811C182.588 13.9366 180.546 23.9623 173.844 31.3711C167.142 38.78 156.173 44.3376 151.99 39.3791C147.807 34.4206 151.994 20.8238 158.696 13.4149C165.398 6.00607 174.222 4.01964 178.405 8.97811Z" fill="#81C77F"/>
<path d="M6.111 124V61.532H31.428C40.6753 61.532 47.53 63.9893 51.992 68.904C56.454 73.754 58.685 81.8373 58.685 93.154C58.685 103.824 56.4863 111.649 52.089 116.628C47.6917 121.543 40.8047 124 31.428 124H6.111ZM16.684 115.852H29.779C33.853 115.852 37.248 115.27 39.964 114.106C42.68 112.877 44.717 110.614 46.075 107.316C47.433 104.018 48.112 99.2973 48.112 93.154C48.112 87.0107 47.4977 82.2577 46.269 78.895C45.0403 75.5323 43.068 73.172 40.352 71.814C37.7007 70.456 34.1763 69.777 29.779 69.777H16.684V115.852ZM69.1042 124V61.532H97.8162C104.8 61.532 109.876 63.3427 113.045 66.964C116.279 70.5207 117.895 75.3707 117.895 81.514C117.895 85.9113 116.796 89.662 114.597 92.766C112.398 95.87 109.23 98.0363 105.091 99.265C106.255 100.106 107.16 101.011 107.807 101.981C108.454 102.951 109.101 104.244 109.747 105.861L117.604 124H106.74L99.0772 106.54C98.3658 104.859 97.4928 103.662 96.4582 102.951C95.4882 102.24 93.8068 101.884 91.4142 101.884H79.6772V124H69.1042ZM79.6772 93.348H95.0032C98.8185 93.348 101.825 92.4103 104.024 90.535C106.223 88.6597 107.322 85.6527 107.322 81.514C107.322 73.6893 103.539 69.777 95.9732 69.777H79.6772V93.348Z" fill="#81C77F"/>
<path d="M150.327 124L126.465 61.532H137.426L156.147 112.651L174.868 61.532H185.829L162.161 124H150.327Z" fill="#337842"/>
</svg>
