<svg width="394" height="131" viewBox="0 0 394 131" fill="none" xmlns="http://www.w3.org/2000/svg">
<rect x="8.67844" y="37.007" width="59.5092" height="86.993" rx="6" fill="#337842"/>
<rect y="37.007" width="59.5092" height="86.993" rx="6" fill="#81C77F"/>
<path d="M6.19888 49.1264C6.19888 46.9172 7.98974 45.1264 10.1989 45.1264H40.6319C42.8411 45.1264 44.6319 46.9172 44.6319 49.1264V73.4205V96.8019C44.6319 99.011 42.8411 100.802 40.6319 100.802H24.8502H10.1989C7.98975 100.802 6.19888 99.011 6.19888 96.8019V49.1264Z" fill="#337842"/>
<path d="M45.8717 56.4056C45.8717 55.3011 46.7671 54.4056 47.8717 54.4056H55.0297C56.1342 54.4056 57.0296 55.3011 57.0296 56.4056V69.8042C57.0296 70.9088 56.1342 71.8042 55.0296 71.8042H47.8717C46.7671 71.8042 45.8717 70.9088 45.8717 69.8042V56.4056Z" fill="#337842"/>
<rect x="6.19888" y="105.441" width="47.1115" height="11.5991" rx="3" fill="#337842"/>
<path d="M53.9529 25.1382L61.4723 30.3448L51.7699 33.6487L53.9529 25.1382Z" fill="#337842"/>
<path d="M72.7752 13.0713C75.6608 15.8669 74.252 21.5195 69.6285 25.6967C65.0051 29.8739 57.4383 33.0073 54.5527 30.2116C51.6671 27.416 54.5554 19.75 59.1788 15.5728C63.8023 11.3956 69.8896 10.2757 72.7752 13.0713Z" fill="#337842"/>
<path d="M49.1096 25.1288L56.629 30.3354L46.9266 33.6393L49.1096 25.1288Z" fill="#81C77F"/>
<path d="M67.9319 13.0619C70.8175 15.8576 69.4087 21.5101 64.7853 25.6873C60.1618 29.8645 52.5951 32.9979 49.7095 30.2023C46.8239 27.4066 49.7121 19.7406 54.3356 15.5635C58.959 11.3863 65.0463 10.2663 67.9319 13.0619Z" fill="#81C77F"/>
<path d="M102.78 66V27.36H118.44C124.16 27.36 128.4 28.88 131.16 31.92C133.92 34.92 135.3 39.92 135.3 46.92C135.3 53.52 133.94 58.36 131.22 61.44C128.5 64.48 124.24 66 118.44 66H102.78ZM109.32 60.96H117.42C119.94 60.96 122.04 60.6 123.72 59.88C125.4 59.12 126.66 57.72 127.5 55.68C128.34 53.64 128.76 50.72 128.76 46.92C128.76 43.12 128.38 40.18 127.62 38.1C126.86 36.02 125.64 34.56 123.96 33.72C122.32 32.88 120.14 32.46 117.42 32.46H109.32V60.96ZM155.365 66.6C150.245 66.6 146.485 65.32 144.085 62.76C141.725 60.2 140.545 56.54 140.545 51.78C140.545 47.02 141.745 43.36 144.145 40.8C146.545 38.24 150.285 36.96 155.365 36.96C160.485 36.96 164.245 38.24 166.645 40.8C169.045 43.36 170.245 47.02 170.245 51.78C170.245 56.54 169.045 60.2 166.645 62.76C164.285 65.32 160.525 66.6 155.365 66.6ZM155.365 61.08C158.365 61.08 160.485 60.36 161.725 58.92C163.005 57.44 163.645 55.06 163.645 51.78C163.645 48.5 163.005 46.14 161.725 44.7C160.485 43.26 158.365 42.54 155.365 42.54C152.405 42.54 150.285 43.26 149.005 44.7C147.765 46.14 147.145 48.5 147.145 51.78C147.145 55.06 147.765 57.44 149.005 58.92C150.285 60.36 152.405 61.08 155.365 61.08ZM186.868 66.6C183.468 66.6 180.848 65.66 179.008 63.78C177.208 61.9 176.308 59.14 176.308 55.5V37.56H182.848V55.5C182.848 57.62 183.368 59.18 184.408 60.18C185.448 61.18 187.048 61.68 189.208 61.68C190.808 61.68 192.288 61.38 193.648 60.78C195.008 60.18 196.188 59.38 197.188 58.38V37.56H203.668V66H197.728L197.428 63.06C196.148 64.06 194.628 64.9 192.868 65.58C191.108 66.26 189.108 66.6 186.868 66.6ZM226.896 66.6C224.816 66.6 223.016 66.32 221.496 65.76C219.976 65.2 218.576 64.34 217.296 63.18L216.936 66H211.296V25.56H217.836V39.42C220.316 37.78 223.296 36.96 226.776 36.96C230.816 36.96 233.996 38.12 236.316 40.44C238.676 42.72 239.856 46.42 239.856 51.54C239.856 56.7 238.696 60.5 236.376 62.94C234.056 65.38 230.896 66.6 226.896 66.6ZM225.156 61.68C228.116 61.68 230.196 60.84 231.396 59.16C232.636 57.48 233.256 54.94 233.256 51.54C233.256 48.02 232.596 45.54 231.276 44.1C229.956 42.66 227.876 41.94 225.036 41.94C222.076 41.94 219.676 42.76 217.836 44.4V58.68C219.716 60.68 222.156 61.68 225.156 61.68ZM253.298 66.6C250.978 66.6 249.218 66.04 248.018 64.92C246.818 63.76 246.218 61.86 246.218 59.22V25.56H252.758V58.62C252.758 59.74 252.958 60.5 253.358 60.9C253.758 61.3 254.358 61.5 255.158 61.5C256.118 61.5 257.038 61.38 257.918 61.14V65.88C257.158 66.16 256.418 66.34 255.698 66.42C255.018 66.54 254.218 66.6 253.298 66.6ZM277.434 66.6C272.474 66.6 268.634 65.38 265.914 62.94C263.194 60.5 261.834 56.76 261.834 51.72C261.834 47.16 262.994 43.56 265.314 40.92C267.634 38.28 271.154 36.96 275.874 36.96C280.194 36.96 283.434 38.1 285.594 40.38C287.794 42.62 288.894 45.52 288.894 49.08V54.36H268.074C268.394 57.12 269.394 59.02 271.074 60.06C272.754 61.1 275.314 61.62 278.754 61.62C280.194 61.62 281.674 61.48 283.194 61.2C284.714 60.92 286.034 60.56 287.154 60.12V64.92C285.874 65.48 284.394 65.9 282.714 66.18C281.074 66.46 279.314 66.6 277.434 66.6ZM268.074 50.1H283.134V48.12C283.134 46.16 282.594 44.64 281.514 43.56C280.434 42.44 278.614 41.88 276.054 41.88C273.014 41.88 270.914 42.54 269.754 43.86C268.634 45.18 268.074 47.26 268.074 50.1ZM309.089 66V27.36H326.849C331.169 27.36 334.309 28.48 336.269 30.72C338.269 32.92 339.269 35.92 339.269 39.72C339.269 42.44 338.589 44.76 337.229 46.68C335.869 48.6 333.909 49.94 331.349 50.7C332.069 51.22 332.629 51.78 333.029 52.38C333.429 52.98 333.829 53.78 334.229 54.78L339.089 66H332.369L327.629 55.2C327.189 54.16 326.649 53.42 326.009 52.98C325.409 52.54 324.369 52.32 322.889 52.32H315.629V66H309.089ZM315.629 47.04H325.109C327.469 47.04 329.329 46.46 330.689 45.3C332.049 44.14 332.729 42.28 332.729 39.72C332.729 34.88 330.389 32.46 325.709 32.46H315.629V47.04Z" fill="#81C77F"/>
<path d="M116.4 120L101.64 81.36H108.42L120 112.98L131.58 81.36H138.36L123.72 120H116.4ZM157.401 120.6C152.441 120.6 148.601 119.38 145.881 116.94C143.161 114.5 141.801 110.76 141.801 105.72C141.801 101.16 142.961 97.56 145.281 94.92C147.601 92.28 151.121 90.96 155.841 90.96C160.161 90.96 163.401 92.1 165.561 94.38C167.761 96.62 168.861 99.52 168.861 103.08V108.36H148.041C148.361 111.12 149.361 113.02 151.041 114.06C152.721 115.1 155.281 115.62 158.721 115.62C160.161 115.62 161.641 115.48 163.161 115.2C164.681 114.92 166.001 114.56 167.121 114.12V118.92C165.841 119.48 164.361 119.9 162.681 120.18C161.041 120.46 159.281 120.6 157.401 120.6ZM148.041 104.1H163.101V102.12C163.101 100.16 162.561 98.64 161.481 97.56C160.401 96.44 158.581 95.88 156.021 95.88C152.981 95.88 150.881 96.54 149.721 97.86C148.601 99.18 148.041 101.26 148.041 104.1ZM178.828 120V91.56H184.828L185.128 94.56C186.408 93.56 187.928 92.72 189.688 92.04C191.488 91.32 193.468 90.96 195.628 90.96C199.308 90.96 201.988 91.82 203.668 93.54C205.348 95.26 206.188 97.94 206.188 101.58V120H199.708V101.88C199.708 99.68 199.248 98.14 198.328 97.26C197.448 96.38 195.768 95.94 193.288 95.94C191.808 95.94 190.348 96.24 188.908 96.84C187.508 97.44 186.328 98.22 185.368 99.18V120H178.828ZM228.289 120.6C225.729 120.6 223.469 120.16 221.509 119.28C219.549 118.4 218.029 116.94 216.949 114.9C215.869 112.86 215.329 110.12 215.329 106.68C215.329 103.28 215.909 100.42 217.069 98.1C218.229 95.74 219.829 93.96 221.869 92.76C223.949 91.56 226.289 90.96 228.889 90.96C230.609 90.96 232.129 91.16 233.449 91.56C234.809 91.96 236.109 92.58 237.349 93.42V79.56H243.889V120H238.309L237.889 117.18C236.609 118.34 235.209 119.2 233.689 119.76C232.169 120.32 230.369 120.6 228.289 120.6ZM230.029 115.68C232.949 115.68 235.389 114.68 237.349 112.68V98.46C235.469 96.78 233.109 95.94 230.269 95.94C227.509 95.94 225.429 96.86 224.029 98.7C222.629 100.54 221.929 103.22 221.929 106.74C221.929 110.14 222.569 112.48 223.849 113.76C225.169 115.04 227.229 115.68 230.029 115.68ZM257.451 85.62V80.22H264.591V85.62H257.451ZM257.991 120V96.54H253.671L254.271 91.56H264.531V120H257.991ZM275.76 120V91.56H281.76L282.06 94.56C283.34 93.56 284.86 92.72 286.62 92.04C288.42 91.32 290.4 90.96 292.56 90.96C296.24 90.96 298.92 91.82 300.6 93.54C302.28 95.26 303.12 97.94 303.12 101.58V120H296.64V101.88C296.64 99.68 296.18 98.14 295.26 97.26C294.38 96.38 292.7 95.94 290.22 95.94C288.74 95.94 287.28 96.24 285.84 96.84C284.44 97.44 283.26 98.22 282.3 99.18V120H275.76ZM325.568 130.56C323.448 130.56 321.328 130.42 319.208 130.14C317.088 129.9 315.288 129.52 313.808 129V123.96C315.408 124.48 317.248 124.88 319.328 125.16C321.408 125.44 323.388 125.58 325.268 125.58C328.148 125.58 330.248 125.42 331.568 125.1C332.888 124.78 333.548 124.06 333.548 122.94C333.548 122.1 333.228 121.5 332.588 121.14C331.948 120.82 330.728 120.66 328.928 120.66H321.248C316.088 120.66 313.508 118.84 313.508 115.2C313.508 114.04 313.848 112.96 314.528 111.96C315.208 110.96 316.288 110.2 317.768 109.68C316.128 108.88 314.908 107.78 314.108 106.38C313.348 104.98 312.968 103.3 312.968 101.34C312.968 97.7 314.048 95.06 316.208 93.42C318.408 91.78 321.688 90.96 326.048 90.96C326.968 90.96 327.928 91.04 328.928 91.2C329.928 91.32 330.708 91.44 331.268 91.56H341.708L341.528 95.82H336.728C337.488 96.46 338.048 97.26 338.408 98.22C338.768 99.18 338.948 100.22 338.948 101.34C338.948 104.38 338.028 106.78 336.188 108.54C334.348 110.26 331.568 111.12 327.848 111.12C327.208 111.12 326.608 111.1 326.048 111.06C325.528 110.98 324.948 110.9 324.308 110.82C323.108 110.94 322.028 111.26 321.068 111.78C320.108 112.3 319.628 113 319.628 113.88C319.628 114.48 319.868 114.92 320.348 115.2C320.828 115.44 321.628 115.56 322.748 115.56H330.728C333.568 115.56 335.748 116.18 337.268 117.42C338.828 118.62 339.608 120.38 339.608 122.7C339.608 125.5 338.388 127.5 335.948 128.7C333.548 129.94 330.088 130.56 325.568 130.56ZM326.048 106.98C328.648 106.98 330.448 106.54 331.448 105.66C332.488 104.78 333.008 103.28 333.008 101.16C333.008 99.04 332.488 97.5 331.448 96.54C330.448 95.58 328.648 95.1 326.048 95.1C323.608 95.1 321.828 95.56 320.708 96.48C319.588 97.4 319.028 98.96 319.028 101.16C319.028 103.2 319.548 104.68 320.588 105.6C321.668 106.52 323.488 106.98 326.048 106.98Z" fill="white"/>
</svg>
