<svg width="1068" height="411" viewBox="0 0 1068 411" fill="none" xmlns="http://www.w3.org/2000/svg">
<path d="M1 155.568V156.84L2.92905 160.656L6.78715 163.201L15.7894 168.289L22.2196 173.378L29.9358 182.283L35.0799 188.644L47.9402 208.998L56.9425 224.264L64.6587 236.986L71.0888 248.435L78.805 262.429L83.9492 271.334L87.8073 277.695L91.6654 282.784L94.2374 285.328L96.8095 286.6L99.3816 285.328L103.24 282.784L107.098 278.967L112.242 275.151L114.814 272.607L116.1 273.879L117.386 275.151L116.1 284.692L114.171 299.958L112.885 316.496L112.242 327.946V350.844L112.885 364.838L114.171 376.924L116.1 383.285L118.672 390.918L122.53 398.551L127.031 403.639L131.532 407.456L136.677 410H142.464L145.679 408.728L146.965 406.184V402.367V397.278L145.036 392.19L143.75 387.737L141.178 381.376L137.32 371.199L134.747 362.294L132.818 352.117L131.532 340.031L130.246 324.129V306.319L130.889 294.869L132.175 287.236L134.104 273.879L136.677 261.157L139.249 248.435L141.821 236.986L145.679 221.72L148.251 211.543L151.466 202.002L154.038 193.096L157.896 182.919L161.111 174.014L165.612 162.565L168.827 154.932L175.258 142.21L181.045 132.033L184.903 126.944L188.118 121.855L191.976 114.222L193.905 109.77L194.548 107.862V101.501L193.262 99.5925L191.976 98.3204L190.047 97.6843H181.045L177.187 98.9565L172.042 102.773L165.612 109.134L157.253 121.855L150.823 134.577L144.393 149.843L140.535 165.109L137.32 180.375L133.461 199.457L128.96 222.356L127.031 234.442L125.745 241.439L124.459 245.255L123.173 247.799L121.887 249.072L120.601 250.344H118.672L116.743 249.708L115.457 248.435L110.313 240.166L102.597 227.445L92.3084 209.635L82.0201 192.46L71.0888 175.286L64.0156 163.837L56.2994 153.659L52.4413 149.207L48.5832 146.663L43.4391 144.118L37.652 142.846L33.7939 142.21H28.0067L22.2196 143.482L17.7184 144.754L13.8603 146.026L11.2883 147.299L8.7162 148.571L6.14413 149.843L4.8581 151.115L3.57207 152.387L2.28603 153.659L1 154.932V155.568Z" fill="black"/>
<path d="M226.699 168.289H238.273L242.774 169.561L244.703 171.47V174.014L242.774 176.558L237.63 180.375L228.628 186.736L217.054 197.549L206.765 209.635L199.049 222.992L195.191 233.806L191.333 245.891L190.047 256.705V271.97L191.333 282.148L192.619 289.781L195.191 296.142L199.049 302.502L202.264 306.319L205.479 308.227H215.125L219.626 306.319L226.056 301.23L232.486 294.869L236.344 288.509L238.916 283.42L241.488 278.331L244.06 270.698L247.275 261.157L249.847 252.888L251.134 246.527L253.063 237.622L254.349 231.261L254.992 227.445L255.635 221.084V212.179V204.546L254.992 201.365L253.706 197.549L252.42 195.005L249.847 191.824L249.204 188.644L249.847 186.1L254.349 182.919L258.207 180.375H263.994L269.781 181.011L272.353 182.919L274.925 188.008L276.854 193.732L278.14 198.821V206.454V221.084L277.497 231.261L276.211 238.894L274.282 247.799L272.353 256.705L268.495 266.882L263.351 278.331L256.921 289.781L250.49 299.958L244.06 308.863L237.63 316.496L229.914 324.129L220.912 333.034L210.623 340.031L200.978 343.848L196.477 345.12H193.905L187.475 343.848L181.045 340.031L174.615 333.034L168.184 325.401L164.326 316.496L160.468 306.319L158.539 296.142L156.61 286.6V278.331V266.246L157.253 256.068L158.539 244.619L161.111 233.17L164.969 221.72L170.113 211.543L175.258 202.638L181.688 195.005L189.404 187.372L197.12 181.011L203.55 177.194L211.266 173.378L221.555 169.561L226.699 168.289Z" fill="black"/>
<path d="M487.764 85.5988L486.478 90.6874V91.3235H489.05L491.622 90.0513L501.91 79.874L510.269 72.2411L517.985 63.3359L523.13 56.9751L526.345 53.1586L526.988 49.9782L526.345 48.07L525.059 46.1617L523.773 45.5257H514.77V44.2535L514.127 40.437L510.269 35.3484L505.768 31.5319L498.052 28.9876L489.05 28.3515L475.546 30.2597L459.471 35.3484L440.823 45.5257L422.176 59.5194L408.673 73.5132L395.169 89.4152L382.952 105.317L372.664 121.219L363.661 137.121L354.659 156.84L347.586 175.922L343.728 191.824L340.513 209.635L339.227 226.173L340.513 240.802L342.442 251.616L346.3 263.065L351.444 271.97L359.16 278.967L363.018 281.512L369.449 283.42H383.595L395.812 279.603L407.387 273.243L417.675 266.882L424.105 261.793L431.821 256.068L439.537 249.072L445.968 242.711L451.755 236.986L455.613 233.17L461.4 226.173V227.445L458.828 234.442L457.542 242.711V249.072L458.828 258.613L461.4 266.882L465.901 273.879L471.688 278.331L476.832 280.876L480.047 281.512H483.906H487.121H490.979L490.336 280.24L489.693 278.967L488.407 276.423L487.764 273.879L487.121 268.79L487.764 262.429L488.407 258.613L489.693 251.616L492.908 242.711L498.052 231.261L504.482 217.267L510.269 204.546L517.342 190.552L526.988 172.742L532.775 161.292L537.276 151.115L540.491 146.026L542.42 140.938L541.777 136.485L538.562 132.669L534.704 130.76H521.844L503.839 133.941L474.26 139.666L443.396 144.754L435.679 146.026L437.608 149.843L445.968 156.204L457.542 160.02L469.116 161.928L476.832 162.565H480.69L481.977 163.837L481.334 165.745L476.189 178.467L469.759 191.824L463.329 203.91L452.398 219.812L438.251 236.35L422.176 249.708L413.817 254.16L406.744 257.977L399.67 257.341L393.24 255.432L388.739 250.98L386.167 247.163L384.881 241.439V231.261L385.524 222.992L387.453 214.723L391.311 200.729L396.455 185.463L403.529 167.653L409.316 154.932L414.46 143.482L420.247 132.033L427.32 119.311L433.75 108.498L441.466 98.3204L450.469 86.8709L460.757 76.6936L471.045 69.0607L477.475 65.2442L484.549 62.0638L490.979 60.7916L494.837 62.0638L496.123 64.6081V69.6967L494.194 74.1493L491.622 79.2379L487.764 85.5988Z" fill="black"/>
<path d="M624.083 100.229L626.655 104.045V105.317L617.653 121.219L608.651 135.213L599.649 149.207L590.003 165.745L582.287 181.011L580.358 194.369L583.573 198.185L590.003 196.277L606.079 184.191L624.083 165.745L653.662 133.941L674.239 109.77L692.243 91.9596L706.389 81.7823L716.678 77.3297L726.966 76.0575L735.968 77.3297L739.826 81.7823L741.112 86.8709L739.183 91.9596L728.252 111.042L712.82 133.941L703.174 150.479L695.458 163.837L689.671 177.194L687.099 185.463L683.241 196.277L680.669 207.726L678.74 216.631L672.31 215.995L666.522 214.087L658.163 207.09L653.019 198.185L651.733 188.008V178.467L653.019 172.742L654.948 163.837L658.806 152.387L661.378 146.026L662.664 144.118V142.846H661.378L654.948 147.935L647.875 155.568L639.516 165.745L631.156 175.922L620.225 188.008L600.935 207.726L584.859 221.72L571.356 231.261L559.782 236.986L547.564 239.53L538.562 238.258L530.846 233.806L526.988 228.081L525.702 221.72L526.988 212.815L530.846 198.185L537.276 185.463L547.564 167.017L557.209 149.207L566.855 133.941L574.571 123.128L581.644 113.586L588.074 106.589L596.434 100.229L604.793 95.14L612.509 93.8678L618.939 97.0482L624.083 100.229Z" fill="black"/>
<path d="M712.82 184.191L713.463 180.375L715.392 179.739H719.25L722.465 181.011L726.323 182.283L728.895 184.191L731.467 185.463L733.396 186.1L736.611 188.008L739.826 188.644H742.398L745.613 188.008L747.542 186.736L750.758 184.191L752.687 180.375L755.259 175.922V166.381L754.616 151.115L752.687 139.03L751.401 126.944V116.131L752.687 104.681L755.902 95.776L760.403 87.507L766.833 79.874L776.478 71.605L786.123 66.5163L798.341 62.0638L809.915 60.7916L816.345 60.1555L826.633 59.5194H838.851L845.924 60.7916L851.068 62.0638L853.64 63.3359L854.926 62.6998V62.0638L855.569 60.1555L859.427 56.9751H864.572L869.073 58.2473L875.503 59.5194L880.647 58.8834L884.505 55.703L896.722 44.2535L907.011 34.0762L917.942 23.2628L929.516 11.1773L935.946 6.08865L943.02 2.90824L950.093 1L957.809 1.63608L966.168 2.27216L970.669 4.1804L974.527 7.36081L975.17 9.90513L974.527 13.7216L970.669 17.5381L962.953 25.1711L955.237 32.168L947.521 39.1649L941.091 45.5257L936.589 49.3421L935.303 50.6143L936.589 51.8865H961.935H964.882L966.168 54.4308L965.525 56.339L960.381 60.7916L950.736 63.3359L936.589 62.6998L930.802 61.4277H926.944L925.015 62.0638L924.372 62.6998L921.8 65.8802L912.798 77.3297L903.796 90.0513L895.436 100.865L887.72 111.042L880.004 121.219L871.002 133.305L862.642 143.482L854.926 152.387L847.853 163.201L844.638 170.834L842.709 179.739L841.423 184.827V189.916H838.208L833.707 188.644L830.492 186.736L827.277 182.919L824.061 176.558L821.489 170.834L820.846 167.017V163.201L821.489 160.02L822.132 156.204L823.418 151.751L824.704 147.299L827.92 140.938L831.778 132.033L836.922 124.4L842.066 116.767L845.281 111.678L851.711 102.773L855.569 97.6843L860.713 91.3235L869.073 81.1462L876.146 73.5132V72.2411L875.503 70.9689L874.217 69.6967L871.901 69.0607L870.359 68.4246H867.144L865.215 69.0607V70.3328L864.572 72.2411L860.07 77.3297L850.425 80.5101L845.924 79.2379L839.494 74.1493L833.707 72.2411H826.633L820.203 73.5132L811.844 79.2379L804.128 89.4152L798.984 103.409L796.412 116.767L795.126 133.941L794.483 144.754L791.911 158.748L789.339 166.381L784.194 176.558L773.906 188.008L762.332 196.913L751.062 201.365L741.112 202.002L733.396 201.365L726.966 198.821L720.536 195.005L714.749 188.008L712.82 184.191Z" fill="black"/>
<path d="M917.942 100.865V104.681L918.585 105.953L920.514 106.589L924.372 105.317L930.802 100.229L940.448 92.5956L952.665 83.6905L963.596 76.0575L974.527 69.6967L988.031 63.3359L996.39 60.7916L1006.04 58.2473L1014.39 58.8834L1021.47 60.1555L1029.18 62.6998L1035.61 66.5163L1040.76 71.605L1043.33 78.6019V88.1431L1040.76 98.3204L1034.33 111.042L1024.68 125.036L1011.18 138.711L998.962 149.843L986.102 157.644L973.884 160.656L960.381 161.292H955.237L951.379 160.02L948.807 157.476L944.306 153.023L941.734 146.663L941.091 139.666L942.377 133.305L950.093 116.767L959.095 102.773L970.669 92.5956L978.385 86.8709L988.031 83.0544L995.747 80.5101L1000.89 79.874L1005.39 80.5101L1009.89 81.7823L1015.04 86.8709L1016.97 90.6874V97.0482L1015.04 102.137L1012.47 109.134L1008.61 116.131L1003.46 122.491L997.033 128.216L990.603 132.033L986.102 133.305L980.315 133.941L977.742 131.397L976.456 128.216L975.813 125.036L977.099 120.583L978.385 116.767L981.601 111.042L983.53 108.498H984.816L986.102 109.134L987.388 110.406V112.95V115.495L988.031 117.403L989.96 119.311L995.104 118.675L997.033 115.495L996.39 111.678L995.104 107.226L993.175 104.681L990.603 102.773L988.031 101.501H982.887L980.958 102.137L976.456 104.681L970.026 110.406L966.168 117.403L963.596 123.764L962.31 128.216V134.577L962.953 138.393L964.239 140.938L967.454 144.118L975.17 146.026L982.244 144.754L989.96 142.846L1000.89 136.485L1011.18 128.216L1017.61 121.219L1022.75 113.586L1026.61 106.589L1027.9 100.865L1029.18 96.4121V92.5956L1028.54 86.2348L1027.25 81.1462L1023.4 76.6936L1018.25 72.8771L1009.25 70.3328L1003.46 69.6967H995.747L988.031 71.605L978.385 74.7854L969.383 79.874L963.596 83.6905L957.166 88.7792L950.736 95.14L944.306 102.137L939.161 108.498L935.303 114.858L932.731 118.675L928.873 126.308L926.301 132.669L923.729 139.666L923.086 144.754L922.443 150.479V156.84L925.015 164.473L929.516 170.834L933.374 173.378L943.02 177.194L957.809 181.011L966.811 182.283L973.884 181.011L982.887 179.103L993.175 175.922L1003.46 170.834L1015.04 163.201L1025.97 153.659L1035.61 143.482L1043.33 133.941L1050.4 124.4L1059.41 107.226L1064.55 94.5039L1067.12 83.6905V72.2411L1065.84 65.8802L1060.69 55.0669L1054.26 48.07L1045.26 43.6174L1035.61 42.3453H1022.75L1006.68 45.5257L983.53 54.4308L970.669 62.0638L950.736 74.1493L935.303 86.8709L921.8 95.776L917.942 100.865Z" fill="black"/>
<path d="M1 155.568V156.84L2.92905 160.656L6.78715 163.201L15.7894 168.289L22.2196 173.378L29.9358 182.283L35.0799 188.644L47.9402 208.998L56.9425 224.264L64.6587 236.986L71.0888 248.435L78.805 262.429L83.9492 271.334L87.8073 277.695L91.6654 282.784L94.2374 285.328L96.8095 286.6L99.3816 285.328L103.24 282.784L107.098 278.967L112.242 275.151L114.814 272.607L116.1 273.879L117.386 275.151L116.1 284.692L114.171 299.958L112.885 316.496L112.242 327.946V350.844L112.885 364.838L114.171 376.924L116.1 383.285L118.672 390.918L122.53 398.551L127.031 403.639L131.532 407.456L136.677 410H142.464L145.679 408.728L146.965 406.184V402.367V397.278L145.036 392.19L143.75 387.737L141.178 381.376L137.32 371.199L134.747 362.294L132.818 352.117L131.532 340.031L130.246 324.129V306.319L130.889 294.869L132.175 287.236L134.104 273.879L136.677 261.157L139.249 248.435L141.821 236.986L145.679 221.72L148.251 211.543L151.466 202.002L154.038 193.096L157.896 182.919L161.111 174.014L165.612 162.565L168.827 154.932L175.258 142.21L181.045 132.033L184.903 126.944L188.118 121.855L191.976 114.222L193.905 109.77L194.548 107.862V101.501L193.262 99.5925L191.976 98.3204L190.047 97.6843H181.045L177.187 98.9565L172.042 102.773L165.612 109.134L157.253 121.855L150.823 134.577L144.393 149.843L140.535 165.109L137.32 180.375L133.461 199.457L128.96 222.356L127.031 234.442L125.745 241.439L124.459 245.255L123.173 247.799L121.887 249.072L120.601 250.344H118.672L116.743 249.708L115.457 248.435L110.313 240.166L102.597 227.445L92.3084 209.635L82.0201 192.46L71.0888 175.286L64.0156 163.837L56.2994 153.659L52.4413 149.207L48.5832 146.663L43.4391 144.118L37.652 142.846L33.7939 142.21H28.0067L22.2196 143.482L17.7184 144.754L13.8603 146.026L11.2883 147.299L8.7162 148.571L6.14413 149.843L4.8581 151.115L3.57207 152.387L2.28603 153.659L1 154.932V155.568Z" stroke="black"/>
<path d="M226.699 168.289H238.273L242.774 169.561L244.703 171.47V174.014L242.774 176.558L237.63 180.375L228.628 186.736L217.054 197.549L206.765 209.635L199.049 222.992L195.191 233.806L191.333 245.891L190.047 256.705V271.97L191.333 282.148L192.619 289.781L195.191 296.142L199.049 302.502L202.264 306.319L205.479 308.227H215.125L219.626 306.319L226.056 301.23L232.486 294.869L236.344 288.509L238.916 283.42L241.488 278.331L244.06 270.698L247.275 261.157L249.847 252.888L251.134 246.527L253.063 237.622L254.349 231.261L254.992 227.445L255.635 221.084V212.179V204.546L254.992 201.365L253.706 197.549L252.42 195.005L249.847 191.824L249.204 188.644L249.847 186.1L254.349 182.919L258.207 180.375H263.994L269.781 181.011L272.353 182.919L274.925 188.008L276.854 193.732L278.14 198.821V206.454V221.084L277.497 231.261L276.211 238.894L274.282 247.799L272.353 256.705L268.495 266.882L263.351 278.331L256.921 289.781L250.49 299.958L244.06 308.863L237.63 316.496L229.914 324.129L220.912 333.034L210.623 340.031L200.978 343.848L196.477 345.12H193.905L187.475 343.848L181.045 340.031L174.615 333.034L168.184 325.401L164.326 316.496L160.468 306.319L158.539 296.142L156.61 286.6V278.331V266.246L157.253 256.068L158.539 244.619L161.111 233.17L164.969 221.72L170.113 211.543L175.258 202.638L181.688 195.005L189.404 187.372L197.12 181.011L203.55 177.194L211.266 173.378L221.555 169.561L226.699 168.289Z" stroke="black"/>
<path d="M487.764 85.5988L486.478 90.6874V91.3235H489.05L491.622 90.0513L501.91 79.874L510.269 72.2411L517.985 63.3359L523.13 56.9751L526.345 53.1586L526.988 49.9782L526.345 48.07L525.059 46.1617L523.773 45.5257H514.77V44.2535L514.127 40.437L510.269 35.3484L505.768 31.5319L498.052 28.9876L489.05 28.3515L475.546 30.2597L459.471 35.3484L440.823 45.5257L422.176 59.5194L408.673 73.5132L395.169 89.4152L382.952 105.317L372.664 121.219L363.661 137.121L354.659 156.84L347.586 175.922L343.728 191.824L340.513 209.635L339.227 226.173L340.513 240.802L342.442 251.616L346.3 263.065L351.444 271.97L359.16 278.967L363.018 281.512L369.449 283.42H383.595L395.812 279.603L407.387 273.243L417.675 266.882L424.105 261.793L431.821 256.068L439.537 249.072L445.968 242.711L451.755 236.986L455.613 233.17L461.4 226.173V227.445L458.828 234.442L457.542 242.711V249.072L458.828 258.613L461.4 266.882L465.901 273.879L471.688 278.331L476.832 280.876L480.047 281.512H483.906H487.121H490.979L490.336 280.24L489.693 278.967L488.407 276.423L487.764 273.879L487.121 268.79L487.764 262.429L488.407 258.613L489.693 251.616L492.908 242.711L498.052 231.261L504.482 217.267L510.269 204.546L517.342 190.552L526.988 172.742L532.775 161.292L537.276 151.115L540.491 146.026L542.42 140.938L541.777 136.485L538.562 132.669L534.704 130.76H521.844L503.839 133.941L474.26 139.666L443.396 144.754L435.679 146.026L437.608 149.843L445.968 156.204L457.542 160.02L469.116 161.928L476.832 162.565H480.69L481.977 163.837L481.334 165.745L476.189 178.467L469.759 191.824L463.329 203.91L452.398 219.812L438.251 236.35L422.176 249.708L413.817 254.16L406.744 257.977L399.67 257.341L393.24 255.432L388.739 250.98L386.167 247.163L384.881 241.439V231.261L385.524 222.992L387.453 214.723L391.311 200.729L396.455 185.463L403.529 167.653L409.316 154.932L414.46 143.482L420.247 132.033L427.32 119.311L433.75 108.498L441.466 98.3204L450.469 86.8709L460.757 76.6936L471.045 69.0607L477.475 65.2442L484.549 62.0638L490.979 60.7916L494.837 62.0638L496.123 64.6081V69.6967L494.194 74.1493L491.622 79.2379L487.764 85.5988Z" stroke="black"/>
<path d="M624.083 100.229L626.655 104.045V105.317L617.653 121.219L608.651 135.213L599.649 149.207L590.003 165.745L582.287 181.011L580.358 194.369L583.573 198.185L590.003 196.277L606.079 184.191L624.083 165.745L653.662 133.941L674.239 109.77L692.243 91.9596L706.389 81.7823L716.678 77.3297L726.966 76.0575L735.968 77.3297L739.826 81.7823L741.112 86.8709L739.183 91.9596L728.252 111.042L712.82 133.941L703.174 150.479L695.458 163.837L689.671 177.194L687.099 185.463L683.241 196.277L680.669 207.726L678.74 216.631L672.31 215.995L666.522 214.087L658.163 207.09L653.019 198.185L651.733 188.008V178.467L653.019 172.742L654.948 163.837L658.806 152.387L661.378 146.026L662.664 144.118V142.846H661.378L654.948 147.935L647.875 155.568L639.516 165.745L631.156 175.922L620.225 188.008L600.935 207.726L584.859 221.72L571.356 231.261L559.782 236.986L547.564 239.53L538.562 238.258L530.846 233.806L526.988 228.081L525.702 221.72L526.988 212.815L530.846 198.185L537.276 185.463L547.564 167.017L557.209 149.207L566.855 133.941L574.571 123.128L581.644 113.586L588.074 106.589L596.434 100.229L604.793 95.14L612.509 93.8678L618.939 97.0482L624.083 100.229Z" stroke="black"/>
<path d="M712.82 184.191L713.463 180.375L715.392 179.739H719.25L722.465 181.011L726.323 182.283L728.895 184.191L731.467 185.463L733.396 186.1L736.611 188.008L739.826 188.644H742.398L745.613 188.008L747.542 186.736L750.758 184.191L752.687 180.375L755.259 175.922V166.381L754.616 151.115L752.687 139.03L751.401 126.944V116.131L752.687 104.681L755.902 95.776L760.403 87.507L766.833 79.874L776.478 71.605L786.123 66.5163L798.341 62.0638L809.915 60.7916L816.345 60.1555L826.633 59.5194H838.851L845.924 60.7916L851.068 62.0638L853.64 63.3359L854.926 62.6998V62.0638L855.569 60.1555L859.427 56.9751H864.572L869.073 58.2473L875.503 59.5194L880.647 58.8834L884.505 55.703L896.722 44.2535L907.011 34.0762L917.942 23.2628L929.516 11.1773L935.946 6.08865L943.02 2.90824L950.093 1L957.809 1.63608L966.168 2.27216L970.669 4.1804L974.527 7.36081L975.17 9.90513L974.527 13.7216L970.669 17.5381L962.953 25.1711L955.237 32.168L947.521 39.1649L941.091 45.5257L936.589 49.3421L935.303 50.6143L936.589 51.8865H961.935H964.882L966.168 54.4308L965.525 56.339L960.381 60.7916L950.736 63.3359L936.589 62.6998L930.802 61.4277H926.944L925.015 62.0638L924.372 62.6998L921.8 65.8802L912.798 77.3297L903.796 90.0513L895.436 100.865L887.72 111.042L880.004 121.219L871.002 133.305L862.642 143.482L854.926 152.387L847.853 163.201L844.638 170.834L842.709 179.739L841.423 184.827V189.916H838.208L833.707 188.644L830.492 186.736L827.277 182.919L824.061 176.558L821.489 170.834L820.846 167.017V163.201L821.489 160.02L822.132 156.204L823.418 151.751L824.704 147.299L827.92 140.938L831.778 132.033L836.922 124.4L842.066 116.767L845.281 111.678L851.711 102.773L855.569 97.6843L860.713 91.3235L869.073 81.1462L876.146 73.5132V72.2411L875.503 70.9689L874.217 69.6967L871.901 69.0607L870.359 68.4246H867.144L865.215 69.0607V70.3328L864.572 72.2411L860.07 77.3297L850.425 80.5101L845.924 79.2379L839.494 74.1493L833.707 72.2411H826.633L820.203 73.5132L811.844 79.2379L804.128 89.4152L798.984 103.409L796.412 116.767L795.126 133.941L794.483 144.754L791.911 158.748L789.339 166.381L784.194 176.558L773.906 188.008L762.332 196.913L751.062 201.365L741.112 202.002L733.396 201.365L726.966 198.821L720.536 195.005L714.749 188.008L712.82 184.191Z" stroke="black"/>
<path d="M917.942 100.865V104.681L918.585 105.953L920.514 106.589L924.372 105.317L930.802 100.229L940.448 92.5956L952.665 83.6905L963.596 76.0575L974.527 69.6967L988.031 63.3359L996.39 60.7916L1006.04 58.2473L1014.39 58.8834L1021.47 60.1555L1029.18 62.6998L1035.61 66.5163L1040.76 71.605L1043.33 78.6019V88.1431L1040.76 98.3204L1034.33 111.042L1024.68 125.036L1011.18 138.711L998.962 149.843L986.102 157.644L973.884 160.656L960.381 161.292H955.237L951.379 160.02L948.807 157.476L944.306 153.023L941.734 146.663L941.091 139.666L942.377 133.305L950.093 116.767L959.095 102.773L970.669 92.5956L978.385 86.8709L988.031 83.0544L995.747 80.5101L1000.89 79.874L1005.39 80.5101L1009.89 81.7823L1015.04 86.8709L1016.97 90.6874V97.0482L1015.04 102.137L1012.47 109.134L1008.61 116.131L1003.46 122.491L997.033 128.216L990.603 132.033L986.102 133.305L980.315 133.941L977.742 131.397L976.456 128.216L975.813 125.036L977.099 120.583L978.385 116.767L981.601 111.042L983.53 108.498H984.816L986.102 109.134L987.388 110.406V112.95V115.495L988.031 117.403L989.96 119.311L995.104 118.675L997.033 115.495L996.39 111.678L995.104 107.226L993.175 104.681L990.603 102.773L988.031 101.501H982.887L980.958 102.137L976.456 104.681L970.026 110.406L966.168 117.403L963.596 123.764L962.31 128.216V134.577L962.953 138.393L964.239 140.938L967.454 144.118L975.17 146.026L982.244 144.754L989.96 142.846L1000.89 136.485L1011.18 128.216L1017.61 121.219L1022.75 113.586L1026.61 106.589L1027.9 100.865L1029.18 96.4121V92.5956L1028.54 86.2348L1027.25 81.1462L1023.4 76.6936L1018.25 72.8771L1009.25 70.3328L1003.46 69.6967H995.747L988.031 71.605L978.385 74.7854L969.383 79.874L963.596 83.6905L957.166 88.7792L950.736 95.14L944.306 102.137L939.161 108.498L935.303 114.858L932.731 118.675L928.873 126.308L926.301 132.669L923.729 139.666L923.086 144.754L922.443 150.479V156.84L925.015 164.473L929.516 170.834L933.374 173.378L943.02 177.194L957.809 181.011L966.811 182.283L973.884 181.011L982.887 179.103L993.175 175.922L1003.46 170.834L1015.04 163.201L1025.97 153.659L1035.61 143.482L1043.33 133.941L1050.4 124.4L1059.41 107.226L1064.55 94.5039L1067.12 83.6905V72.2411L1065.84 65.8802L1060.69 55.0669L1054.26 48.07L1045.26 43.6174L1035.61 42.3453H1022.75L1006.68 45.5257L983.53 54.4308L970.669 62.0638L950.736 74.1493L935.303 86.8709L921.8 95.776L917.942 100.865Z" stroke="black"/>
</svg>
